<svg width="99" height="99" viewBox="0 0 99 99" fill="none" xmlns="http://www.w3.org/2000/svg">
<g clip-path="url(#clip0_124_734)">
<path d="M78.375 8.25H20.625C16.0875 8.25 12.375 11.9625 12.375 16.5V74.25C12.375 78.7875 16.0875 82.5 20.625 82.5H37.125L46.5713 91.9463C48.18 93.555 50.7787 93.555 52.3875 91.9463L61.875 82.5H78.375C82.9125 82.5 86.625 78.7875 86.625 74.25V16.5C86.625 11.9625 82.9125 8.25 78.375 8.25ZM57.255 53.13L49.5 70.125L41.745 53.13L24.75 45.375L41.745 37.62L49.5 20.625L57.255 37.62L74.25 45.375L57.255 53.13Z" fill="#A28A67"/>
</g>
<defs>
<clipPath id="clip0_124_734">
<rect width="99" height="99" fill="white"/>
</clipPath>
</defs>
</svg>
